<svg width="68" height="68" viewBox="0 0 68 68" fill="none" xmlns="http://www.w3.org/2000/svg">
<path fill-rule="evenodd" clip-rule="evenodd" d="M34 68C52.7777 68 68 52.7777 68 34C68 15.2223 52.7777 0 34 0C15.2223 0 0 15.2223 0 34C0 52.7777 15.2223 68 34 68Z" fill="#A6A6A6"/>
<path fill-rule="evenodd" clip-rule="evenodd" d="M34.5 33.2754C37.09 33.2754 39.1896 31.199 39.1896 28.6377C39.1896 26.0764 37.09 24 34.5 24C31.9099 24 29.8103 26.0764 29.8103 28.6377C29.8103 31.199 31.9099 33.2754 34.5 33.2754Z" fill="#5A5B5F"/>
<path fill-rule="evenodd" clip-rule="evenodd" d="M34.5 35.5942C29.8056 35.5942 26 39.3576 26 44H43C43 39.3576 39.1944 35.5942 34.5 35.5942Z" fill="#5A5B5F"/>
</svg>
